<svg width="154" height="83" viewBox="0 0 154 83" fill="none" xmlns="http://www.w3.org/2000/svg">
<path d="M145.548 8.93807C141.1 5.52604 137.445 3.95118 131.679 3.05797C114.732 0.432571 96.5442 1.40954 79.6562 4.01852C56.3706 7.61583 32.2963 18.6576 14.5559 34.2108C5.35322 42.2789 -4.39976 55.4821 4.52748 67.168C10.4728 74.9504 19.6918 77.7842 28.8525 79.9017C40.0621 82.4927 50.8675 82.2656 62.2848 81.4334C87.2432 79.614 115.361 76.9968 137.063 63.3258C145.67 57.9041 155.188 48.9493 152.553 37.6766C149.358 24.0026 134.595 14.4831 122.896 8.93808C115.674 5.51449 107.975 3.22144 100.089 1.95464C91.3317 0.547822 83.0923 1.06528 74.3241 1.22774" stroke="#4B4B4B" stroke-width="2" stroke-linecap="round"/>
</svg>
