<svg width="174" height="81" viewBox="0 0 174 81" fill="none" xmlns="http://www.w3.org/2000/svg">
<path d="M164.567 8.74207C159.534 5.41429 155.398 3.87831 148.874 3.00716C129.696 0.446582 109.116 1.39943 90.0056 3.94399C63.6562 7.45247 36.4142 18.2216 16.3395 33.3908C5.92601 41.2597 -5.11025 54.1369 4.99162 65.5342C11.7193 73.1245 22.1513 75.8883 32.5173 77.9535C45.2018 80.4806 57.429 80.2591 70.3486 79.4474C98.5909 77.6729 130.408 75.1203 154.966 61.7869C164.706 56.499 175.476 47.7653 172.495 36.771C168.879 23.4346 152.173 14.1502 138.935 8.74207C130.762 5.40302 122.051 3.16659 113.127 1.93107C103.217 0.558987 93.8939 1.06367 83.972 1.22212" stroke="#4B4B4B" stroke-opacity="0.96" stroke-linecap="round"/>
</svg>
