<svg width="42" height="42" viewBox="0 0 42 42" fill="none" xmlns="http://www.w3.org/2000/svg">
<path d="M20.9997 0.0476074C9.42774 0.0476074 0.0473633 9.42799 0.0473633 21C0.0473633 32.572 9.42774 41.9524 20.9997 41.9524C32.5717 41.9524 41.9521 32.572 41.9521 21C41.9521 9.42799 32.5717 0.0476074 20.9997 0.0476074ZM20.9997 3.08361C25.5642 3.08361 29.7306 4.79123 32.8944 7.60094C30.5697 10.6673 27.0382 12.7091 23.4994 14.0909C21.496 10.4424 19.2509 6.93207 16.7789 3.58332C18.1614 3.25007 19.5787 3.08233 21.0008 3.08361H20.9997ZM13.3773 4.78075C15.7135 8.27561 17.9763 11.5159 20.0433 15.1836C14.8156 16.5382 8.90812 17.3511 3.45108 17.3648C4.60136 11.783 8.35079 7.14837 13.3773 4.7818V4.78075ZM34.8817 9.67313C37.4707 12.8369 38.8949 16.7936 38.9161 20.8816C34.7717 20.0645 30.6504 19.8507 26.4536 20.274C25.9822 19.0975 25.4102 17.9797 24.8623 16.7749C28.4797 15.3156 32.3476 12.8181 34.8817 9.67208V9.67313ZM21.4984 17.9556C21.9468 18.9089 22.4664 19.9209 22.9546 20.9549C17.1194 23.5279 10.9122 26.9662 7.69079 32.9942C4.59823 29.5719 2.95011 25.0856 3.09174 20.4751C9.34079 20.4458 15.4746 19.6643 21.4984 17.9556ZM30.9668 22.8407C33.5741 22.8412 36.1706 23.1757 38.693 23.8359C38.3041 26.2624 37.4201 28.583 36.0959 30.6533C34.7718 32.7235 33.0359 34.4992 30.9961 35.8699C30.0344 31.4961 29.1177 27.3108 27.4971 23.091C28.6457 22.9237 29.805 22.8396 30.9657 22.8396L30.9668 22.8407ZM38.7862 23.1654C38.7736 23.2681 38.7621 23.3687 38.7475 23.4692C38.7621 23.3676 38.7747 23.267 38.7862 23.1654ZM24.1824 23.9092C25.8335 28.1762 27.1294 32.9009 27.9989 37.4989C25.7855 38.4381 23.4052 38.9206 21.0008 38.9174C17.0176 38.9231 13.1471 37.5954 10.006 35.146C13.2505 29.8827 18.2759 25.8997 24.1814 23.9103L24.1824 23.9092Z" fill="#4B4B4B"/>
</svg>
