<svg width="38" height="40" viewBox="0 0 38 40" fill="none" xmlns="http://www.w3.org/2000/svg">
<path d="M33.6665 39.3333H30.6048C29.6324 39.3333 28.6997 38.947 28.0121 38.2594C27.3245 37.5717 26.9382 36.6391 26.9382 35.6666V25.8216C26.9546 25.4355 26.8379 25.0555 26.6076 24.7452C26.3773 24.4348 26.0474 24.2129 25.6732 24.1166C25.4554 24.0835 25.2331 24.0974 25.0212 24.1575C24.8093 24.2176 24.6128 24.3225 24.4448 24.465C24.272 24.6117 24.1333 24.7943 24.0383 25.0001C23.9433 25.2059 23.8943 25.43 23.8948 25.6566V35.6666C23.8948 36.6391 23.5085 37.5717 22.8209 38.2594C22.1333 38.947 21.2006 39.3333 20.2282 39.3333H17.1665C16.194 39.3333 15.2614 38.947 14.5738 38.2594C13.8861 37.5717 13.4998 36.6391 13.4998 35.6666V25.6566C13.4998 22.4962 14.7553 19.4651 16.9902 17.2303C19.225 14.9955 22.256 13.74 25.4165 13.74C28.577 13.74 31.6081 14.9955 33.8429 17.2303C36.0777 19.4651 37.3332 22.4962 37.3332 25.6566V35.6666C37.3332 36.6391 36.9469 37.5717 36.2592 38.2594C35.5716 38.947 34.639 39.3333 33.6665 39.3333ZM25.4165 20.4316C25.7034 20.4135 25.9912 20.4135 26.2782 20.4316C27.509 20.6684 28.6172 21.331 29.4084 22.3032C30.1995 23.2753 30.6231 24.495 30.6048 25.7483V35.6666H33.6665V25.6566C33.6665 23.4686 32.7973 21.3702 31.2501 19.823C29.703 18.2758 27.6045 17.4066 25.4165 17.4066C23.2285 17.4066 21.1301 18.2758 19.5829 19.823C18.0357 21.3702 17.1665 23.4686 17.1665 25.6566V35.6666H20.2282V25.6566C20.2281 24.2772 20.7736 22.9538 21.7456 21.9749C22.7175 20.9961 24.0371 20.4413 25.4165 20.4316ZM7.99984 39.3333H4.33317C3.36071 39.3333 2.42808 38.947 1.74045 38.2594C1.05281 37.5717 0.666506 36.6391 0.666506 35.6666V17.3333C0.666506 16.3609 1.05281 15.4282 1.74045 14.7406C2.42808 14.053 3.36071 13.6666 4.33317 13.6666H7.99984C8.9723 13.6666 9.90493 14.053 10.5926 14.7406C11.2802 15.4282 11.6665 16.3609 11.6665 17.3333V35.6666C11.6665 36.6391 11.2802 37.5717 10.5926 38.2594C9.90493 38.947 8.9723 39.3333 7.99984 39.3333ZM4.33317 17.3333V35.6666H7.99984V17.3333H4.33317ZM6.16651 11.8333C5.07871 11.8333 4.01534 11.5107 3.11087 10.9064C2.2064 10.3021 1.50145 9.44307 1.08517 8.43807C0.668887 7.43308 0.559969 6.32721 0.772187 5.26032C0.984406 4.19342 1.50823 3.21342 2.27742 2.44423C3.04661 1.67504 4.02661 1.15122 5.09351 0.938996C6.16041 0.726778 7.26627 0.835696 8.27127 1.25198C9.27626 1.66826 10.1352 2.37321 10.7396 3.27768C11.3439 4.18215 11.6665 5.24552 11.6665 6.33332C11.6665 7.79201 11.087 9.19095 10.0556 10.2224C9.02414 11.2539 7.6252 11.8333 6.16651 11.8333ZM6.16651 4.49998C5.80391 4.49998 5.44945 4.60751 5.14796 4.80895C4.84647 5.0104 4.61149 5.29673 4.47273 5.63173C4.33397 5.96673 4.29766 6.33535 4.3684 6.69098C4.43914 7.04661 4.61375 7.37328 4.87014 7.62968C5.12654 7.88607 5.45321 8.06068 5.80884 8.13142C6.16447 8.20216 6.53309 8.16586 6.86809 8.02709C7.20309 7.88833 7.48942 7.65335 7.69087 7.35186C7.89232 7.05037 7.99984 6.69591 7.99984 6.33332C7.99984 5.84709 7.80669 5.38077 7.46287 5.03695C7.11905 4.69314 6.65274 4.49998 6.16651 4.49998Z" fill="#4B4B4B"/>
</svg>
