<svg width="38" height="30" viewBox="0 0 38 30" fill="none" xmlns="http://www.w3.org/2000/svg">
<path d="M6.62484 0.333313H31.3748C32.8968 0.333213 34.361 0.915495 35.4673 1.96071C36.5735 3.00593 37.2378 4.43483 37.324 5.95431L37.3332 6.29165V23.7083C37.3333 25.2302 36.751 26.6945 35.7058 27.8007C34.6606 28.907 33.2316 29.5713 31.7122 29.6575L31.3748 29.6666H6.62484C5.10292 29.6667 3.63865 29.0845 2.53241 28.0392C1.42618 26.994 0.761835 25.5651 0.675671 24.0456L0.666504 23.7083V6.29165C0.666404 4.76973 1.24869 3.30546 2.2939 2.19922C3.33912 1.09299 4.76803 0.428644 6.2875 0.34248L6.62484 0.333313H31.3748H6.62484ZM34.5832 10.1838L19.6415 18.0488C19.4728 18.1379 19.2874 18.191 19.097 18.2045C18.9067 18.2181 18.7157 18.1919 18.536 18.1276L18.36 18.0506L3.4165 10.1856V23.7083C3.41653 24.5135 3.71932 25.2892 4.26475 25.8815C4.81018 26.4738 5.55839 26.8394 6.36084 26.9056L6.62484 26.9166H31.3748C32.1803 26.9166 32.9563 26.6135 33.5486 26.0677C34.141 25.5219 34.5064 24.7733 34.5722 23.9705L34.5832 23.7083V10.1838ZM31.3748 3.08331H6.62484C5.81966 3.08334 5.04392 3.38613 4.45162 3.93156C3.85932 4.47699 3.49376 5.22519 3.4275 6.02765L3.4165 6.29165V7.07815L18.9998 15.2786L34.5832 7.07631V6.29165C34.5831 5.48617 34.2801 4.71019 33.7343 4.11785C33.1884 3.5255 32.4398 3.16013 31.637 3.09431L31.3748 3.08331Z" fill="#4B4B4B"/>
</svg>
